@startuml GameLogic
state "GameLogic State" as Cs101_GameLogic_State {
  state "Lost" as Cs101_GameLogic_State_Lost
  state "MenuBackdrop" as Cs101_GameLogic_State_MenuBackdrop
  state "Paused" as Cs101_GameLogic_State_Paused {
    state "Saving" as Cs101_GameLogic_State_Saving
  }
  state "Playing" as Cs101_GameLogic_State_Playing
  state "Quit" as Cs101_GameLogic_State_Quit
  state "RestartingGame" as Cs101_GameLogic_State_RestartingGame
  state "Resuming" as Cs101_GameLogic_State_Resuming
  state "Won" as Cs101_GameLogic_State_Won
}

Cs101_GameLogic_State_Lost --> Cs101_GameLogic_State_Quit : GoToMainMenu
Cs101_GameLogic_State_Lost --> Cs101_GameLogic_State_RestartingGame : Start
Cs101_GameLogic_State_MenuBackdrop --> Cs101_GameLogic_State_MenuBackdrop : Initialize
Cs101_GameLogic_State_MenuBackdrop --> Cs101_GameLogic_State_Playing : Start
Cs101_GameLogic_State_Paused --> Cs101_GameLogic_State_Quit : GoToMainMenu
Cs101_GameLogic_State_Paused --> Cs101_GameLogic_State_Resuming : PauseButtonPressed
Cs101_GameLogic_State_Paused --> Cs101_GameLogic_State_Saving : SaveRequested
Cs101_GameLogic_State_Playing --> Cs101_GameLogic_State_Lost : EndGame
Cs101_GameLogic_State_Playing --> Cs101_GameLogic_State_Paused : PauseButtonPressed
Cs101_GameLogic_State_Playing --> Cs101_GameLogic_State_Quit : EndGame
Cs101_GameLogic_State_Playing --> Cs101_GameLogic_State_Won : EndGame
Cs101_GameLogic_State_Resuming --> Cs101_GameLogic_State_Playing : PauseMenuTransitioned
Cs101_GameLogic_State_Saving --> Cs101_GameLogic_State_Paused : SaveCompleted
Cs101_GameLogic_State_Saving --> Cs101_GameLogic_State_Saving : PauseButtonPressed
Cs101_GameLogic_State_Won --> Cs101_GameLogic_State_Won : GoToMainMenu

Cs101_GameLogic_State : OnIsMouseCaptured() → CaptureMouse
Cs101_GameLogic_State : OnIsPaused() → SetPauseMode
Cs101_GameLogic_State_Lost : OnEnter → ShowLostScreen
Cs101_GameLogic_State_Paused : OnEnter → ShowPauseMenu
Cs101_GameLogic_State_Paused : OnExit → ExitPauseMenu
Cs101_GameLogic_State_Playing : OnEnter → StartGame
Cs101_GameLogic_State_Resuming : OnExit → HidePauseMenu
Cs101_GameLogic_State_Saving : OnEnter → ShowPauseSaveOverlay, StartSaving
Cs101_GameLogic_State_Saving : OnExit → HidePauseSaveOverlay
Cs101_GameLogic_State_Won : OnEnter → ShowWonScreen

[*] --> Cs101_GameLogic_State_MenuBackdrop
@enduml